<svg xmlns="http://www.w3.org/2000/svg" xmlns:xlink="http://www.w3.org/1999/xlink" width="587" height="398" viewBox="0 0 587 398">
  <defs>
    <clipPath id="clip-path">
      <rect id="Rectangle_2" data-name="Rectangle 2" width="587" height="398" transform="translate(427)" fill="#fff" stroke="#707070" stroke-width="1"/>
    </clipPath>
    <clipPath id="clip-path-2">
      <rect id="Rectangle_1" data-name="Rectangle 1" width="1063" height="1043"/>
    </clipPath>
  </defs>
  <g id="bg-front-right" transform="translate(-427)" clip-path="url(#clip-path)">
    <g id="bg-front" transform="translate(429 19)" clip-path="url(#clip-path-2)">
      <g id="Group_4000" data-name="Group 4000" transform="translate(-141 108)">
        <g id="Group_3991" data-name="Group 3991" transform="translate(0 48)">
          <g id="Group_3989" data-name="Group 3989" transform="translate(-780.656 -112.273)">
            <path id="Path_4424" data-name="Path 4424" d="M63.209,167.268C87.786,129.862,233.02-76.163,398.141,30.162s388.3,194.1,368.164,263.531,8.717,328.556-131.956,393.436-334.94,143.679-433.128,92.84S-8.517,618.141.515,460.8,38.628,204.675,63.209,167.268Z" transform="translate(1855.604 96.248) rotate(89.026)" fill="#843dff"/>
            <path id="Path_4423" data-name="Path 4423" d="M84.9,214.579c31.976-47.616,220.75-310.005,431.184-177.66S1011.64,277.41,984.959,365.464s7.141,415.367-174.054,499.21S379.63,1050.65,254.345,987.613-12.62,785.652.9,586.563,52.924,262.2,84.9,214.579Z" transform="translate(1756.803 -153.699) rotate(69.028)" fill="#843dff" opacity="0.33"/>
            <path id="Path_4425" data-name="Path 4425" d="M84.9,214.579c31.976-47.616,220.75-310.005,431.184-177.66S1011.64,277.41,984.959,365.464s7.141,415.367-174.054,499.21S379.63,1050.65,254.345,987.613-12.4,766.465,1.122,567.376,52.924,262.2,84.9,214.579Z" transform="translate(2146.259 311.899) rotate(120)" fill="#3d4aff" opacity="0.33"/>
          </g>
        </g>
        <path id="Path_4411" data-name="Path 4411" d="M0,0H1381.5V80.5H0Z" transform="translate(1374 78.5) rotate(180)" fill="none"/>
      </g>
    </g>
  </g>
</svg>
