<svg xmlns="http://www.w3.org/2000/svg" xmlns:xlink="http://www.w3.org/1999/xlink" width="467" height="175" viewBox="0 0 467 175">
  <defs>
    <clipPath id="clip-path">
      <rect id="Rectangle_1" data-name="Rectangle 1" width="467" height="175" transform="translate(596 1311)" fill="#fff" stroke="#707070" stroke-width="1"/>
    </clipPath>
  </defs>
  <g id="Mask_Group_1" data-name="Mask Group 1" transform="translate(-596 -1311)" clip-path="url(#clip-path)">
    <g id="bottom-card" transform="translate(120.808 253.428) rotate(4.012)">
      <g id="Group_4016" data-name="Group 4016" transform="translate(376.737 970)">
        <path id="Path_4428" data-name="Path 4428" d="M4472.32,1204.32s-91.225,5.834-151.646,60.283-180.08,21.391-201.406-5.834-140.984-29.169-140.984-29.169-136.245,6.806-178.9-71.95,81.747-119.593,81.747-119.593,85.3-17.5,161.125-91.4,118.473-74.867,142.168-80.7,106.626,4.862,167.048,48.615,150.462,67.089,150.462,67.089,143.353,25.28,123.213,126.4S4472.32,1204.32,4472.32,1204.32Z" transform="translate(-3789.785 -823.506)" fill="#733fff" opacity="0.2"/>
        <path id="Path_4429" data-name="Path 4429" d="M558.977,264.859s-77.133,8.41-130.534,57.214-152.714,25.041-169.438,2.572-117.459-19.64-117.459-19.64S26.435,315.936-5.9,250.224,68.448,144.94,68.448,144.94s72.675-18.16,139.942-84.163S311.64-7.658,331.872-13.533s89.622.154,138.532,35.282S594.115,73.443,594.115,73.443,713.748,89.67,692.154,176.852,558.977,264.859,558.977,264.859Z" transform="translate(126.435) rotate(14)" fill="#733fff" opacity="0.2"/>
        <path id="Path_4430" data-name="Path 4430" d="M586.347,280.574s-79.017,5.752-131.913,52.249S298.343,352.51,280.188,329.73,158.494,306.4,158.494,306.4,40.5,313.378,4.462,247.3,76.536,145.64,76.536,145.64,150.555,130.1,217,67.049,320.36,2.794,340.932-2.345,433.16.789,484.969,37.163,614.445,92.41,614.445,92.41s123.788,20.03,105.237,105.546S586.347,280.574,586.347,280.574Z" transform="translate(68.429 49.755) rotate(3)" fill="#733fff" opacity="0.2"/>
      </g>
    </g>
  </g>
</svg>
